HIERARCHY
ROOT joint_0
{
	OFFSET 0.000000 0.000000 0.000000
	CHANNELS 6 Xposition Yposition Zposition Zrotation Yrotation Xrotation 
	JOINT joint_1
	{
		OFFSET 0.587158 0.057678 95.682007
		CHANNELS 3 Zrotation Yrotation Xrotation
		JOINT joint_2
		{
			OFFSET -7.116699 -0.219910 87.157959
			CHANNELS 3 Zrotation Yrotation Xrotation
			JOINT joint_3
			{
				OFFSET -5.892822 -0.290222 87.151001
				CHANNELS 3 Zrotation Yrotation Xrotation
				JOINT joint_4
				{
					OFFSET 5.544678 -0.099609 123.768066
					CHANNELS 3 Zrotation Yrotation Xrotation
					JOINT joint_5
					{
						OFFSET 41.981201 4.519775 84.257935
						CHANNELS 3 Zrotation Yrotation Xrotation
						End Site
						{
							OFFSET 0.000000 0.000000 0.000000
						}
					}
				}
				JOINT joint_6
				{
					OFFSET 3.940918 -26.976501 69.308105
					CHANNELS 3 Zrotation Yrotation Xrotation
					JOINT joint_7
					{
						OFFSET 4.776123 -152.592468 -16.842041
						CHANNELS 3 Zrotation Yrotation Xrotation
						JOINT joint_8
						{
							OFFSET 54.421875 -30.424072 -248.864014
							CHANNELS 3 Zrotation Yrotation Xrotation
							JOINT joint_9
							{
								OFFSET 42.120117 -33.387878 -236.524963
								CHANNELS 3 Zrotation Yrotation Xrotation
								End Site
								{
									OFFSET 0.000000 0.000000 0.000000
								}
							}
						}
					}
				}
				JOINT joint_10
				{
					OFFSET 2.312012 26.904114 69.425049
					CHANNELS 3 Zrotation Yrotation Xrotation
					JOINT joint_11
					{
						OFFSET 0.971436 152.197815 -20.626953
						CHANNELS 3 Zrotation Yrotation Xrotation
						JOINT joint_12
						{
							OFFSET 49.954102 28.991455 -249.970093
							CHANNELS 3 Zrotation Yrotation Xrotation
							JOINT joint_13
							{
								OFFSET 48.146973 19.598389 -236.919922
								CHANNELS 3 Zrotation Yrotation Xrotation
								End Site
								{
									OFFSET 0.000000 0.000000 0.000000
								}
							}
						}
					}
				}
			}
		}
	}
	JOINT joint_14
	{
		OFFSET 16.305664 -89.442932 -108.224976
		CHANNELS 3 Zrotation Yrotation Xrotation
		JOINT joint_15
		{
			OFFSET -22.282471 13.437134 -412.904968
			CHANNELS 3 Zrotation Yrotation Xrotation
			JOINT joint_16
			{
				OFFSET -45.426025 14.484802 -445.892029
				CHANNELS 3 Zrotation Yrotation Xrotation
				JOINT joint_17
				{
					OFFSET 173.389404 -9.944031 -76.473001
					CHANNELS 3 Zrotation Yrotation Xrotation
					End Site
					{
						OFFSET 0.000000 0.000000 0.000000
					}
				}
			}
		}
	}
	JOINT joint_18
	{
		OFFSET 13.392822 89.408875 -108.653992
		CHANNELS 3 Zrotation Yrotation Xrotation
		JOINT joint_19
		{
			OFFSET -29.032959 24.483521 -411.977966
			CHANNELS 3 Zrotation Yrotation Xrotation
			JOINT joint_20
			{
				OFFSET -30.530029 28.986328 -446.453018
				CHANNELS 3 Zrotation Yrotation Xrotation
				JOINT joint_21
				{
					OFFSET 170.330078 33.400757 -76.698997
					CHANNELS 3 Zrotation Yrotation Xrotation
					End Site
					{
						OFFSET 0.000000 0.000000 0.000000
					}
				}
			}
		}
	}
}
MOTION
Frames: 17
Frame Time: 0.016667
-1785.983154 951.580750 1057.198975 -3.902478 -2.115424 1.062245 -0.051821 4.746780 -0.040704 -0.273101 -1.096322 0.005784 -0.292572 1.029527 -0.002971 -0.280100 3.319214 0.245963 0.000000 0.000000 0.000000 -2.140850 0.722654 -2.788795 0.149543 0.512961 -1.159458 5.777663 -24.880609 10.742624 0.000000 0.000000 0.000000 3.396290 2.263204 0.681026 1.874362 2.010521 3.101868 -3.133921 -19.922855 -9.273517 0.000000 0.000000 0.000000 0.112032 -1.125686 -11.380972 -0.822812 1.208079 0.936671 -0.652015 3.255333 -0.087610 0.000000 0.000000 0.000000 1.501842 -2.733452 0.654556 2.137913 6.400573 0.306766 1.635286 -1.137349 0.950931 0.000000 0.000000 0.000000 
-1784.904053 952.360046 1057.172974 -3.916695 -2.082294 1.007554 0.073189 5.030369 -0.053957 -0.160661 -1.089936 0.016337 -0.180452 1.042026 -0.004687 -0.322814 3.103912 0.346628 0.000000 0.000000 0.000000 -1.071387 2.722544 -4.084786 -0.137602 2.718233 -0.564903 6.766473 -35.554533 10.808787 0.000000 0.000000 0.000000 2.712519 3.867512 2.308349 2.595892 3.775142 2.328228 -3.717171 -28.706278 -10.871518 0.000000 0.000000 0.000000 0.122611 -1.714076 -11.519861 -0.788833 2.316797 1.193490 -0.634802 3.036153 -0.092421 0.000000 0.000000 0.000000 1.535280 -3.284678 0.690266 2.289779 7.521948 0.242908 1.661782 -1.854984 1.102045 0.000000 0.000000 0.000000 
-1783.520752 953.346497 1057.093994 -3.987348 -2.037423 0.930592 0.264845 5.449675 -0.045979 0.005819 -1.078003 0.045799 -0.017839 1.065870 -0.029483 -0.379313 2.775719 0.483097 0.000000 0.000000 0.000000 0.484391 5.205373 -5.141183 -0.669545 5.448307 0.142490 7.322005 -47.896283 10.013380 0.000000 0.000000 0.000000 1.643940 5.849337 3.874191 3.545136 5.948700 1.668150 -4.136254 -39.040076 -12.379581 0.000000 0.000000 0.000000 0.149875 -2.588911 -11.705455 -0.724173 3.944372 1.555425 -0.605327 2.654701 -0.101245 0.000000 0.000000 0.000000 1.585407 -3.821411 0.702819 2.453376 8.642763 0.232855 1.702996 -2.605938 1.265858 0.000000 0.000000 0.000000 
-1782.648438 954.734192 1056.921997 -4.057243 -1.975881 0.819394 0.433671 6.192278 -0.005169 0.097280 -1.173369 0.030221 0.068059 1.151961 -0.055207 -0.426221 2.237455 0.622557 0.000000 0.000000 0.000000 1.275257 5.876941 -5.584369 -1.011069 6.229599 0.648306 7.795464 -56.787528 10.113365 0.000000 0.000000 0.000000 0.653945 6.656836 4.376733 4.562718 6.891583 1.992111 -4.356943 -46.949216 -14.158968 0.000000 0.000000 0.000000 0.183425 -3.979450 -12.028058 -0.637682 6.428441 2.184319 -0.581088 1.993651 -0.128184 0.000000 0.000000 0.000000 1.615027 -4.190797 0.763090 2.578242 9.352111 0.171925 1.747576 -3.153217 1.391154 0.000000 0.000000 0.000000 
-1783.107910 956.681458 1056.487061 -4.158145 -1.934284 0.759776 0.561542 7.459948 -0.235077 0.064279 -1.390605 0.065120 0.018236 1.337596 -0.049532 -0.476403 1.296854 0.806915 0.000000 0.000000 0.000000 0.518329 3.010404 -5.176471 -1.118937 3.380299 0.677803 8.654581 -59.164901 12.561067 0.000000 0.000000 0.000000 -0.265471 5.477602 3.229455 5.814555 5.843375 3.896521 -4.421808 -50.605736 -16.411888 0.000000 0.000000 0.000000 0.294195 -5.926483 -12.639149 -0.456004 9.826942 3.123542 -0.509157 0.991060 -0.154579 0.000000 0.000000 0.000000 1.638873 -4.227408 0.750482 2.640231 9.334693 0.099400 1.804477 -3.341579 1.451696 0.000000 0.000000 0.000000 
-1784.080566 959.030762 1055.961060 -4.266302 -1.833650 0.767721 0.710885 8.954300 -0.642974 -0.066301 -1.616719 0.188415 -0.148098 1.521344 -0.060659 -0.511318 0.114423 0.976635 0.000000 0.000000 0.000000 -1.012592 -1.830821 -3.592136 -1.228123 -1.399384 0.326333 9.685327 -57.855218 16.173220 0.000000 0.000000 0.000000 -1.186935 3.089448 1.372867 7.214866 3.600826 6.586469 -4.455466 -52.183100 -19.171563 0.000000 0.000000 0.000000 0.454472 -8.421270 -13.500397 -0.182523 14.017739 4.302876 -0.405288 0.038641 -0.164181 0.000000 0.000000 0.000000 1.650808 -4.142698 0.653592 2.668454 8.906730 0.000177 1.873688 -3.303141 1.472938 0.000000 0.000000 0.000000 
-1783.919434 961.508362 1055.822998 -4.357330 -1.418826 0.804654 0.930754 9.974815 -0.780506 -0.281074 -1.776672 0.245358 -0.406288 1.637581 -0.103956 -0.478104 -0.857256 0.977416 0.000000 0.000000 0.000000 -1.750241 -5.812763 -2.029754 -1.653105 -5.014466 0.120836 10.543446 -58.963137 18.705328 0.000000 0.000000 0.000000 -1.908365 0.359198 0.352200 8.671121 0.960867 8.485918 -4.531138 -54.313704 -22.708994 0.000000 0.000000 0.000000 0.557091 -11.821977 -14.517792 0.121218 19.239149 5.705657 -0.359652 -0.189402 -0.152290 0.000000 0.000000 0.000000 1.609160 -4.406900 0.613417 2.735088 8.590904 -0.303931 1.977418 -3.222153 1.499337 0.000000 0.000000 0.000000 
-1782.287476 964.106750 1056.186035 -4.401397 -0.261146 1.029611 1.259335 9.975214 -0.708749 -0.571971 -1.832263 0.193553 -0.746599 1.721986 -0.122265 -0.396126 -1.429617 0.835524 0.000000 0.000000 0.000000 -0.865410 -7.677153 -1.835217 -2.140681 -5.922804 0.387676 11.294777 -67.215483 18.232021 0.000000 0.000000 0.000000 -2.425198 -2.890798 0.356340 10.491191 -2.265707 9.183634 -4.514905 -57.524753 -27.546431 0.000000 0.000000 0.000000 0.541142 -17.101357 -15.968227 0.572384 26.504216 7.393150 -0.385297 1.258045 -0.052665 0.000000 0.000000 0.000000 1.425132 -5.554526 0.571073 2.898215 8.535105 -1.055004 2.168270 -3.072118 1.546261 0.000000 0.000000 0.000000 
-1779.521606 966.832397 1056.937988 -4.330660 1.228126 1.511902 1.574876 9.480260 -0.853445 -0.964461 -1.822446 0.225607 -1.211351 1.760181 -0.099084 -0.304276 -1.809273 0.662527 0.000000 0.000000 0.000000 0.828319 -9.014969 -2.311344 -2.150945 -5.840894 0.667276 11.971838 -78.320373 15.764359 0.000000 0.000000 0.000000 -2.838867 -6.911745 0.487187 12.908080 -6.255716 9.289539 -4.104621 -60.407409 -33.241548 0.000000 0.000000 0.000000 0.249579 -23.337594 -17.687584 1.223929 34.447199 8.894788 -0.534529 4.755757 0.169506 0.000000 0.000000 0.000000 1.118645 -7.075068 0.303433 3.104492 8.570640 -1.943279 2.430044 -2.726227 1.582222 0.000000 0.000000 0.000000 
-1774.994263 969.435486 1058.222046 -4.344322 2.085459 1.895916 1.850499 9.344508 -0.956899 -1.352982 -1.864794 0.291864 -1.701375 1.724733 -0.044193 -0.230127 -2.064184 0.540242 0.000000 0.000000 0.000000 2.147300 -11.181738 -3.039582 -2.105160 -6.392506 0.637188 12.341232 -86.526911 14.228535 0.000000 0.000000 0.000000 -3.234527 -10.939019 0.690780 15.978928 -10.082138 8.782785 -3.096103 -63.470169 -38.934949 0.000000 0.000000 0.000000 -0.330188 -28.268553 -18.777005 1.763963 40.412124 9.713219 -1.070866 8.568887 0.307027 0.000000 0.000000 0.000000 0.951662 -7.870436 -0.073365 3.295292 8.742644 -2.392660 2.693384 -2.389471 1.620667 0.000000 0.000000 0.000000 
-1768.207642 972.068726 1060.323975 -4.950228 1.933498 1.884321 2.299797 9.666541 -0.659930 -1.600809 -1.865077 0.294450 -2.064462 1.670717 0.031275 -0.188986 -2.150315 0.505279 0.000000 0.000000 0.000000 2.713956 -14.752322 -3.532520 -3.513635 -8.265651 -0.268669 -167.988264 -89.508740 -163.755977 0.000000 0.000000 0.000000 -3.602432 -15.233803 0.795345 20.391913 -13.351625 7.625672 -1.162124 -68.548492 -45.332128 0.000000 0.000000 0.000000 -0.996384 -31.430114 -18.804910 1.953480 44.476198 10.011236 -2.311353 11.370557 0.117983 0.000000 0.000000 0.000000 1.263486 -7.398731 -0.416250 3.542802 9.006158 -2.125821 3.021183 -2.245808 1.725521 0.000000 0.000000 0.000000 
-1759.658325 974.578491 1062.957031 -5.982487 1.319329 1.674649 2.781219 10.015309 -0.143038 -1.778028 -1.792270 0.216089 -2.286456 1.617673 0.111808 -0.178916 -2.110641 0.532903 0.000000 0.000000 0.000000 3.190236 -18.944169 -3.534474 -6.760842 -11.103215 -1.372271 -169.084330 -88.003280 -158.983995 0.000000 0.000000 0.000000 -3.744660 -20.934799 0.477656 26.476113 -16.191238 5.673938 2.938487 -72.951864 -54.274655 0.000000 0.000000 0.000000 -1.670195 -33.653130 -18.136862 1.901800 47.289682 9.957027 -4.019214 13.267399 -0.322055 0.000000 0.000000 0.000000 1.902435 -6.339258 -0.737388 3.836282 9.392193 -1.478283 3.396938 -2.151603 1.860447 0.000000 0.000000 0.000000 
-1750.202026 976.247253 1065.404053 -7.076144 0.908816 1.548738 2.983415 9.992530 0.130599 -1.884916 -1.696691 0.157813 -2.353489 1.554349 0.143596 -0.191123 -2.063892 0.496760 0.000000 0.000000 0.000000 3.700339 -22.750642 -3.370835 -10.531159 -13.999841 -1.231824 -170.361425 -88.891651 -153.765936 0.000000 0.000000 0.000000 -3.568841 -26.610889 0.214116 32.060606 -18.556935 3.441438 15.831186 -66.945138 -72.213288 0.000000 0.000000 0.000000 -2.068075 -35.137312 -17.252358 1.778783 47.959765 9.668436 -5.133565 13.615767 -0.716051 0.000000 0.000000 0.000000 2.486221 -5.600016 -1.054324 4.130625 10.056031 -0.860776 3.744515 -1.978893 1.969820 0.000000 0.000000 0.000000 
-1740.216675 976.782104 1067.496948 -8.225855 1.077485 1.568373 2.810465 9.213910 -0.086792 -1.779270 -1.597878 0.188094 -2.319180 1.477496 0.109911 -0.190532 -1.944575 0.325625 0.000000 0.000000 0.000000 3.898373 -25.626304 -3.667571 -13.107103 -16.252084 0.531560 8.823198 -87.388413 29.851778 0.000000 0.000000 0.000000 -5.205751 -14.257958 1.746467 -15.810488 -16.165078 28.642287 87.709397 -85.636046 -88.911920 0.000000 0.000000 0.000000 -1.933990 -35.915574 -16.313349 1.667623 45.389922 9.255444 -4.767256 12.046232 -0.785100 0.000000 0.000000 0.000000 2.837746 -5.671898 -1.377784 4.480258 11.114195 -0.379118 4.092052 -1.656724 2.054505 0.000000 0.000000 0.000000 
-1729.323608 976.477051 1069.404053 -9.395258 1.436754 1.663107 2.396832 8.077465 -0.523940 -1.528118 -1.495425 0.288098 -2.198443 1.379127 0.024111 -0.144745 -1.792534 0.084143 0.000000 0.000000 0.000000 3.952090 -27.668872 -4.194119 -15.067692 -18.008717 2.956501 8.269470 -82.070461 32.613510 0.000000 0.000000 0.000000 -4.118978 -21.735479 2.719993 3.282512 -22.932018 17.898024 57.398185 -70.432621 -82.418779 0.000000 0.000000 0.000000 -1.422539 -35.728708 -15.364776 1.518128 40.220691 8.734186 -3.509292 9.829150 -0.569972 0.000000 0.000000 0.000000 3.089560 -6.048855 -1.705041 4.836566 12.454085 0.056075 4.391648 -1.225266 2.100393 0.000000 0.000000 0.000000 
-1717.249023 975.482483 1070.907959 -10.285385 1.565176 1.898570 2.005443 7.291424 -0.922475 -1.326613 -1.426216 0.395692 -2.061386 1.289701 -0.053257 -0.049941 -1.814175 -0.099493 0.000000 0.000000 0.000000 4.250973 -28.618010 -4.591524 -16.708021 -19.140655 4.918062 7.873982 -78.469552 34.544425 0.000000 0.000000 0.000000 -3.102459 -31.119160 3.118147 19.447241 -22.032015 9.640017 30.482321 -66.887457 -71.896652 0.000000 0.000000 0.000000 -0.837145 -34.645062 -14.682702 1.323024 34.635178 8.122249 -2.337640 8.231013 -0.294890 0.000000 0.000000 0.000000 3.291962 -6.162680 -2.041556 5.051029 13.879305 0.328910 4.506428 -0.807501 2.069232 0.000000 0.000000 0.000000 
-1703.562256 973.719971 1072.130005 -10.925949 1.295075 2.288150 1.811598 7.079494 -1.142053 -1.174012 -1.343329 0.421955 -1.887751 1.235456 -0.094060 0.081541 -2.144535 -0.214360 0.000000 0.000000 0.000000 4.805409 -27.981719 -4.819975 -17.497973 -19.453466 5.667201 7.849379 -78.978340 35.031657 0.000000 0.000000 0.000000 -2.661546 -34.489441 3.071775 22.302463 -20.158349 8.885068 30.149664 -59.514740 -73.856298 0.000000 0.000000 0.000000 -0.221140 -32.629978 -14.268334 1.098913 29.416924 7.366030 -1.452632 6.485769 -0.106785 0.000000 0.000000 0.000000 3.506368 -5.646075 -2.393874 5.081225 15.127984 0.438569 4.407399 -0.384500 1.945373 0.000000 0.000000 0.000000 
